<svg xmlns="http://www.w3.org/2000/svg" viewBox="0 0 100 100">
  <circle cx="50" cy="50" r="50" fill="#3b82f6"/>
  <g transform="translate(50,50)" stroke="white" stroke-width="3" stroke-linecap="round" fill="none">
    <line y1="-28" y2="28"/>
    <line x1="-24" y1="-14" x2="24" y2="14"/>
    <line x1="-24" y1="14" x2="24" y2="-14"/>
    <line x1="-8" y1="-22" x2="0" y2="-28"/>
    <line x1="8" y1="-22" x2="0" y2="-28"/>
    <line x1="-8" y1="22" x2="0" y2="28"/>
    <line x1="8" y1="22" x2="0" y2="28"/>
    <line x1="-20" y1="-4" x2="-24" y2="-14"/>
    <line x1="-14" y1="-14" x2="-24" y2="-14"/>
    <line x1="20" y1="4" x2="24" y2="14"/>
    <line x1="14" y1="14" x2="24" y2="14"/>
    <line x1="-20" y1="4" x2="-24" y2="14"/>
    <line x1="-14" y1="14" x2="-24" y2="14"/>
    <line x1="20" y1="-4" x2="24" y2="-14"/>
    <line x1="14" y1="-14" x2="24" y2="-14"/>
  </g>
</svg>
